<svg xmlns="http://www.w3.org/2000/svg" width="220" height="220" viewBox="165 365 220 220">
  <defs>
    <linearGradient id="modernGradient" x1="0%" y1="0%" x2="100%" y2="100%">
      <stop offset="0%" style="stop-color:#4deadd; stop-opacity:1">
         <animate attributeName="offset" values="0;0.3;0" dur="4s" repeatCount="indefinite" />
      </stop>
      <stop offset="100%" style="stop-color:#249e93; stop-opacity:1">
         <animate attributeName="offset" values="0.7;1;0.7" dur="4s" repeatCount="indefinite" />
      </stop>
    </linearGradient>

    <linearGradient id="highlightGradient" x1="0%" y1="0%" x2="100%" y2="0%">
      <stop offset="0%" style="stop-color:white; stop-opacity:0.9" />
      <stop offset="100%" style="stop-color:white; stop-opacity:0" />
      <animate attributeName="x1" values="-50%;100%;-50%" dur="5s" repeatCount="indefinite" />
      <animate attributeName="x2" values="50%;200%;50%" dur="5s" repeatCount="indefinite" />
    </linearGradient>

    <linearGradient id="softReflectGradient" x1="50%" y1="0%" x2="50%" y2="100%">
      <stop offset="0%" style="stop-color:white; stop-opacity:0.5" />
      <stop offset="100%" style="stop-color:white; stop-opacity:0" />
    </linearGradient>

    <linearGradient id="shadowGradient" x1="0%" y1="0%" x2="100%" y2="100%">
      <stop offset="0%" style="stop-color:#004d47; stop-opacity:0.4" />
      <stop offset="100%" style="stop-color:#004d47; stop-opacity:0" />
    </linearGradient>

    <clipPath id="logoClip">
      <path d="M 291.59 562.63 C284.83,565.83 282.50,566.42 275.59,566.68 C263.60,567.13 255.79,564.61 245.50,556.99 C240.27,553.11 215.40,529.75 208.25,522.00 C205.97,519.53 201.09,514.35 197.40,510.50 C184.20,496.70 178.83,485.18 178.76,470.50 C178.72,461.34 180.87,451.96 184.79,444.16 C189.93,433.92 234.77,388.01 246.37,381.11 C263.83,370.72 288.14,372.15 302.73,384.43 L 305.75 386.97 L 306.49 417.54 C306.90,434.35 306.96,448.37 306.64,448.70 C306.31,449.02 302.71,446.13 298.65,442.27 C282.12,426.57 276.06,423.32 269.13,426.44 C263.85,428.82 235.49,456.58 233.52,461.30 C231.25,466.74 231.61,472.83 234.57,478.77 C237.39,484.43 258.28,505.35 266.64,510.88 C277.21,517.89 281.62,516.17 299.10,498.24 C306.12,491.04 310.24,487.32 312.65,482.72 C316.07,476.18 316.06,467.84 316.01,445.16 C316.01,442.37 316.00,439.36 316.00,436.11 L 316.00 395.94 L 318.78 398.00 C322.09,400.44 348.76,429.09 353.45,435.23 C366.28,452.03 368.62,473.99 359.51,491.98 C355.19,500.51 341.33,516.73 320.03,538.19 C301.00,557.37 298.92,559.16 291.59,562.63 Z" />
    </clipPath>

    <filter id="softShadow" x="-50%" y="-50%" width="200%" height="200%">
      <feGaussianBlur in="SourceAlpha" stdDeviation="6" />
      <feOffset dx="2" dy="5" result="offsetblur" />
      <feComponentTransfer><feFuncA type="linear" slope="0.25" /></feComponentTransfer>
      <feMerge>
        <feMergeNode />
        <feMergeNode in="SourceGraphic" />
      </feMerge>
    </filter>
  </defs>

  <g filter="url(#softShadow)">
    <path d="M 747.69 520.84 C735.47,525.41 722.39,522.66 713.81,513.70 L 709.00 508.69 L 709.00 521.00 L 693.00 521.00 L 693.00 420.00 L 714.00 420.00 L 714.00 457.39 L 717.25 454.25 C722.58,449.10 728.36,447.04 737.50,447.04 C747.11,447.04 752.43,449.10 758.83,455.30 C767.15,463.36 770.63,473.86 769.70,488.14 C768.67,504.05 760.63,516.00 747.69,520.84 ZM 594.50 497.00 L 594.50 520.50 L 574.00 521.07 L 574.00 448.00 L 592.00 448.00 L 592.00 457.66 L 596.29 453.55 C605.95,444.29 622.74,444.79 630.81,454.59 L 633.63 458.00 L 636.56 454.87 C641.22,449.91 648.40,447.02 656.00,447.03 C666.86,447.05 673.58,451.44 678.18,461.50 C680.34,466.24 680.48,467.92 680.82,493.75 L 681.19 521.00 L 660.00 521.00 L 660.00 497.45 C660.00,478.51 659.71,473.33 658.51,471.01 C654.92,464.08 646.98,462.82 641.50,468.30 C638.64,471.16 638.10,472.52 637.46,478.55 C637.04,482.37 636.98,493.50 637.32,503.28 L 637.94 521.07 L 627.72 520.78 L 617.50 520.50 L 617.00 496.50 C616.65,479.88 616.11,471.82 615.24,470.30 C611.14,463.14 600.14,463.22 596.17,470.44 C594.74,473.06 594.50,476.90 594.50,497.00 ZM 427.00 472.00 L 427.00 521.00 L 416.67 521.00 C410.98,521.00 406.03,520.70 405.67,520.33 C405.30,519.97 405.00,497.24 405.00,469.83 L 405.00 420.00 L 427.00 420.00 L 427.00 442.50 C427.00,455.55 427.39,465.00 427.92,465.00 C428.43,465.00 436.57,454.68 446.02,442.06 L 463.19 419.13 L 475.10 419.31 C483.35,419.44 486.88,419.84 486.59,420.61 C486.19,421.67 479.31,430.46 461.76,452.35 C457.41,457.77 453.63,462.79 453.36,463.50 C453.09,464.22 462.34,477.11 473.92,492.15 C485.51,507.19 494.99,519.84 494.99,520.25 C495.00,520.66 489.17,521.00 482.04,521.00 L 469.09 521.00 L 452.40 498.75 C432.59,472.33 432.30,472.00 429.33,472.00 ZM 813.33 519.55 C809.47,521.81 807.07,522.42 801.02,522.69 C784.51,523.43 773.97,514.02 774.01,498.57 C774.03,489.89 780.28,481.29 789.30,477.52 C794.26,475.45 806.02,474.64 814.00,475.81 C817.58,476.34 820.60,476.68 820.72,476.58 C821.60,475.82 818.52,468.89 816.42,466.93 C812.72,463.45 800.30,462.95 789.99,465.87 C785.98,467.00 782.39,467.74 782.02,467.51 C781.65,467.28 781.38,463.59 781.42,459.30 L 781.50 451.50 L 787.00 449.54 C791.40,447.97 795.19,447.57 806.00,447.54 C818.80,447.50 819.80,447.65 825.20,450.30 C828.87,452.10 831.99,454.59 833.98,457.29 C839.54,464.85 840.26,468.97 840.75,496.25 L 841.20 521.00 L 823.00 521.00 L 823.00 516.50 C823.00,511.48 821.99,510.83 819.68,514.37 C818.83,515.67 815.97,518.00 813.33,519.55 ZM 520.00 420.00 L 520.00 521.00 L 499.00 521.00 L 499.00 435.00 L 490.00 435.00 L 490.00 420.00 ZM 559.00 448.00 L 559.00 521.00 L 539.00 521.00 L 538.85 503.75 C538.77,494.26 538.82,480.95 538.97,474.17 L 539.24 461.83 L 530.50 462.47 L 530.21 455.23 L 529.91 448.00 ZM 723.12 502.83 C736.10,509.26 749.01,500.50 748.99,485.28 C748.98,472.29 742.17,464.00 731.51,464.00 C721.03,464.00 714.99,470.46 714.22,482.51 C713.82,488.74 714.11,490.55 716.24,495.22 C718.26,499.62 719.57,501.07 723.12,502.83 ZM 557.15 434.16 C554.68,436.93 553.51,437.41 548.35,437.78 C543.04,438.17 542.07,437.93 539.24,435.55 C533.43,430.66 534.03,421.79 540.42,417.89 C544.09,415.65 550.99,415.43 554.85,417.43 C560.60,420.40 561.78,428.98 557.15,434.16 ZM 801.02 506.88 C804.78,508.38 808.07,508.15 812.67,506.06 C817.97,503.66 820.12,500.35 820.33,494.30 L 820.50 489.50 L 810.16 489.50 C800.07,489.50 799.76,489.57 797.41,492.31 C792.84,497.62 794.49,504.28 801.02,506.88 Z" fill="rgb(13,37,71)"/>
    <path d="M 291.59 562.63 C284.83,565.83 282.50,566.42 275.59,566.68 C263.60,567.13 255.79,564.61 245.50,556.99 C240.27,553.11 215.40,529.75 208.25,522.00 C205.97,519.53 201.09,514.35 197.40,510.50 C184.20,496.70 178.83,485.18 178.76,470.50 C178.72,461.34 180.87,451.96 184.79,444.16 C189.93,433.92 234.77,388.01 246.37,381.11 C263.83,370.72 288.14,372.15 302.73,384.43 L 305.75 386.97 L 306.49 417.54 C306.90,434.35 306.96,448.37 306.64,448.70 C306.31,449.02 302.71,446.13 298.65,442.27 C282.12,426.57 276.06,423.32 269.13,426.44 C263.85,428.82 235.49,456.58 233.52,461.30 C231.25,466.74 231.61,472.83 234.57,478.77 C237.39,484.43 258.28,505.35 266.64,510.88 C277.21,517.89 281.62,516.17 299.10,498.24 C306.12,491.04 310.24,487.32 312.65,482.72 C316.07,476.18 316.06,467.84 316.01,445.16 C316.01,442.37 316.00,439.36 316.00,436.11 L 316.00 395.94 L 318.78 398.00 C322.09,400.44 348.76,429.09 353.45,435.23 C366.28,452.03 368.62,473.99 359.51,491.98 C355.19,500.51 341.33,516.73 320.03,538.19 C301.00,557.37 298.92,559.16 291.59,562.63 Z" fill="url(#modernGradient)"/>

    <g clip-path="url(#logoClip)">
      <path d="M 170 385 L 330 385 L 280 460 Z" fill="url(#highlightGradient)" opacity="0.8" />
      
      <path d="M 280 460 L 330 385 L 365 450 L 300 490 Z" fill="url(#softReflectGradient)" opacity="0.6" />
      
      <path d="M 210 490 C 230 460 260 440 300 435 L 280 460 C 250 465 230 480 210 490 Z" fill="url(#shadowGradient)" />

      <path d="M 180 465 C 190 425 230 395 280 390 L 260 430 C 220 435 200 455 180 465 Z" fill="white" opacity="0.3" />
      
      <path d="M 250 510 L 360 470 L 360 560 L 280 540 Z" fill="url(#softReflectGradient)" opacity="0.4" />
      
      <path d="M 280 540 L 360 560 L 300 570 Z" fill="url(#shadowGradient)" opacity="0.5" />

      <path d="M 178.76 470.50 C 178.72 461.34 180.87 451.96 184.79 444.16 L 188 448 C 185 454 183 462 183 470 Z" fill="white" opacity="0.7"/>
    </g>
  </g>
</svg>
